# xmcd CD database file
#
# Track frame offsets:
#	150
#	16405
#	34160
#	47914
#	75422
#	86375
#	120815
#	134442
#	157855
#	171180
#	181057
#	198797
#	215255
#	227935
#	241917
#	253747
#	271797
#	287575
#
# Disc length: 3998 seconds
#
# Revision: 0
# Processed by: cddbd v1.5.1PL0 Copyright (c) Steve Scherf et al.
# Submitted via: CDex 1.51
#
DISCID=df0f9c12
DTITLE=Various Artist - The Voics - cd 2
DYEAR=2005
DGENRE=Jazz
TTITLE0=Natalie Cole feat. Diana Krall - Better than anything
TTITLE1=Madeleine Peyroux - Dance me to the end of love
TTITLE2=Nina Simone - My baby jsut cares for me
TTITLE3=Dee Dee Bridgewater - Doolin'
TTITLE4=Rosemary Clooney - Blue moon
TTITLE5=Shirley Horn - Summer
TTITLE6=Carmen Micrae - Skylark
TTITLE7=Helen Merrill - Don't explain
TTITLE8=Anita O'Day - Whisper not
TTITLE9=Dinah Washington - Love for sale
TTITLE10=Margaret Whiting - Smoke gets in your eyes
TTITLE11=Caterina Valente - Moonlight in vermont
TTITLE12=Julie London - Cry me a river
TTITLE13=Peggy Lee - Black coffee
TTITLE14=Della Reese - The lady is a tramp
TTITLE15=Sarah Vaughan - Lullaby of birdland
TTITLE16=Billie Holiday - Good morning, heartache
TTITLE17=Ella Fitzgerald - You hit the spot
EXTD=YEAR: 2005
EXTT0=
EXTT1=
EXTT2=
EXTT3=
EXTT4=
EXTT5=
EXTT6=
EXTT7=
EXTT8=
EXTT9=
EXTT10=
EXTT11=
EXTT12=
EXTT13=
EXTT14=
EXTT15=
EXTT16=
EXTT17=
PLAYORDER=
